<svg width="300" height="64" viewBox="0 0 300 64" fill="none" xmlns="http://www.w3.org/2000/svg">
<g filter="url(#filter0_d_74_611)">
<rect x="7" y="7.97388" width="282" height="44.1391" rx="5" fill="black"/>
<g clip-path="url(#clip0_74_611)">
<rect width="19.6174" height="19.6174" transform="translate(19.2609 20.2347)" fill="black"/>
<path d="M36.6555 35.2943C36.3712 35.9511 36.0347 36.5557 35.6448 37.1116C35.1133 37.8694 34.6781 38.3939 34.3427 38.6852C33.8228 39.1633 33.2658 39.4082 32.6693 39.4221C32.2411 39.4221 31.7247 39.3002 31.1236 39.0531C30.5205 38.807 29.9663 38.6852 29.4595 38.6852C28.928 38.6852 28.358 38.807 27.7483 39.0531C27.1377 39.3002 26.6458 39.429 26.2696 39.4418C25.6977 39.4662 25.1275 39.2144 24.5584 38.6852C24.1952 38.3684 23.7409 37.8253 23.1966 37.0559C22.6127 36.2343 22.1326 35.2816 21.7565 34.1954C21.3537 33.0222 21.1518 31.8861 21.1518 30.7862C21.1518 29.5263 21.424 28.4396 21.9693 27.529C22.3979 26.7976 22.968 26.2206 23.6816 25.797C24.3952 25.3735 25.1662 25.1576 25.9965 25.1438C26.4508 25.1438 27.0466 25.2843 27.7869 25.5605C28.5252 25.8376 28.9993 25.9782 29.2071 25.9782C29.3625 25.9782 29.8891 25.8139 30.7819 25.4863C31.6261 25.1824 32.3386 25.0567 32.9223 25.1062C34.504 25.2339 35.6923 25.8574 36.4826 26.9807C35.068 27.8378 34.3683 29.0383 34.3822 30.5783C34.3949 31.7779 34.8301 32.7761 35.6854 33.5687C36.073 33.9366 36.5058 34.2209 36.9874 34.4228C36.883 34.7257 36.7727 35.0158 36.6555 35.2943ZM33.0279 21.0195C33.0279 21.9598 32.6844 22.8376 31.9998 23.6502C31.1735 24.6161 30.1741 25.1743 29.0904 25.0862C29.0766 24.9735 29.0686 24.8547 29.0686 24.73C29.0686 23.8274 29.4615 22.8614 30.1593 22.0716C30.5076 21.6717 30.9507 21.3392 31.488 21.074C32.0241 20.8127 32.5313 20.6682 33.0082 20.6434C33.0221 20.7691 33.0279 20.8948 33.0279 21.0195V21.0195Z" fill="white"/>
</g>
<path d="M57.4974 23.1894C58.9821 23.1894 60.1342 23.5805 60.9537 24.3628C61.7733 25.1451 62.2282 26.0338 62.3187 27.0289H60.7701C60.5945 26.2732 60.2433 25.6746 59.7165 25.2329C59.195 24.7912 58.4606 24.5703 57.5133 24.5703C56.3586 24.5703 55.4246 24.9774 54.7115 25.7916C54.0038 26.6005 53.6499 27.8431 53.6499 29.5194C53.6499 30.8923 53.9692 32.0072 54.6078 32.864C55.2517 33.7154 56.2096 34.1412 57.4814 34.1412C58.6522 34.1412 59.5435 33.6915 60.1555 32.7921C60.4801 32.3185 60.7222 31.6959 60.8819 30.9243H62.4305C62.2921 32.1589 61.8344 33.1939 61.0575 34.0294C60.1262 35.0352 58.8703 35.5381 57.2898 35.5381C55.9275 35.5381 54.7834 35.1256 53.8574 34.3008C52.6388 33.2099 52.0295 31.5256 52.0295 29.248C52.0295 27.5185 52.4871 26.1003 53.4024 24.9934C54.3922 23.7907 55.7572 23.1894 57.4974 23.1894ZM67.5711 34.3088C68.5236 34.3088 69.1755 33.9496 69.5268 33.2312C69.8833 32.5074 70.0616 31.7039 70.0616 30.8205C70.0616 30.0223 69.9339 29.373 69.6784 28.8728C69.274 28.0852 68.5769 27.6914 67.5871 27.6914C66.709 27.6914 66.0704 28.0267 65.6713 28.6972C65.2722 29.3677 65.0726 30.1766 65.0726 31.1238C65.0726 32.0338 65.2722 32.7921 65.6713 33.3988C66.0704 34.0055 66.7037 34.3088 67.5711 34.3088ZM67.627 26.4382C68.7285 26.4382 69.6598 26.8054 70.4208 27.5398C71.1818 28.2741 71.5623 29.3544 71.5623 30.7806C71.5623 32.1589 71.227 33.2977 70.5565 34.197C69.886 35.0964 68.8456 35.5461 67.4354 35.5461C66.2593 35.5461 65.3254 35.1496 64.6336 34.3567C63.9418 33.5585 63.5959 32.4888 63.5959 31.1478C63.5959 29.711 63.9604 28.5668 64.6895 27.7154C65.4185 26.8639 66.3977 26.4382 67.627 26.4382ZM73.2785 26.6857H74.6434V27.899C75.0479 27.3987 75.4763 27.0395 75.9286 26.8214C76.3809 26.6032 76.8838 26.4941 77.4373 26.4941C78.6506 26.4941 79.4701 26.9171 79.8958 27.7633C80.13 28.2262 80.247 28.8888 80.247 29.7509V35.2347H78.7863V29.8467C78.7863 29.3251 78.7091 28.9047 78.5548 28.5855C78.2994 28.0533 77.8364 27.7872 77.1659 27.7872C76.8253 27.7872 76.5459 27.8218 76.3277 27.891C75.9339 28.0081 75.588 28.2422 75.29 28.5934C75.0505 28.8755 74.8936 29.1682 74.8191 29.4715C74.7499 29.7695 74.7153 30.1979 74.7153 30.7566V35.2347H73.2785V26.6857ZM82.6657 24.2989H84.1185V26.6857H85.4835V27.8591H84.1185V33.4387C84.1185 33.7367 84.2196 33.9363 84.4218 34.0374C84.5336 34.0959 84.7198 34.1252 84.9806 34.1252C85.0498 34.1252 85.1243 34.1252 85.2041 34.1252C85.2839 34.1199 85.377 34.1119 85.4835 34.1012V35.2347C85.3185 35.2826 85.1455 35.3172 84.9646 35.3385C84.789 35.3598 84.5974 35.3704 84.3899 35.3704C83.7194 35.3704 83.2644 35.2002 83.0249 34.8596C82.7854 34.5137 82.6657 34.0667 82.6657 33.5185V27.8591H81.5083V26.6857H82.6657V24.2989ZM86.9283 26.7256H88.389V35.2347H86.9283V26.7256ZM86.9283 23.5087H88.389V25.1371H86.9283V23.5087ZM90.5682 26.6857H91.9332V27.899C92.3376 27.3987 92.766 27.0395 93.2183 26.8214C93.6707 26.6032 94.1736 26.4941 94.727 26.4941C95.9403 26.4941 96.7598 26.9171 97.1856 27.7633C97.4197 28.2262 97.5368 28.8888 97.5368 29.7509V35.2347H96.076V29.8467C96.076 29.3251 95.9989 28.9047 95.8445 28.5855C95.5891 28.0533 95.1261 27.7872 94.4556 27.7872C94.115 27.7872 93.8356 27.8218 93.6175 27.891C93.2237 28.0081 92.8778 28.2422 92.5798 28.5934C92.3403 28.8755 92.1833 29.1682 92.1088 29.4715C92.0396 29.7695 92.005 30.1979 92.005 30.7566V35.2347H90.5682V26.6857ZM101.105 26.6857V32.3611C101.105 32.7975 101.174 33.154 101.312 33.4307C101.568 33.9416 102.044 34.197 102.741 34.197C103.742 34.197 104.423 33.75 104.785 32.856C104.982 32.3771 105.08 31.7199 105.08 30.8844V26.6857H106.517V35.2347H105.16L105.176 33.9735C104.99 34.2981 104.758 34.5722 104.481 34.7957C103.933 35.2427 103.268 35.4662 102.486 35.4662C101.267 35.4662 100.437 35.0591 99.9953 34.2449C99.7559 33.8086 99.6361 33.2259 99.6361 32.4968V26.6857H101.105ZM112.328 26.4941C112.935 26.4941 113.523 26.6378 114.092 26.9251C114.662 27.2072 115.095 27.5744 115.393 28.0267C115.681 28.4577 115.872 28.9606 115.968 29.5354C116.053 29.9291 116.096 30.5571 116.096 31.4192H109.83C109.856 32.2866 110.061 32.9837 110.444 33.5106C110.827 34.0321 111.421 34.2928 112.224 34.2928C112.975 34.2928 113.573 34.0454 114.02 33.5505C114.276 33.2631 114.457 32.9305 114.563 32.5527H115.976C115.939 32.8666 115.814 33.2179 115.601 33.6063C115.393 33.9895 115.159 34.3035 114.898 34.5483C114.462 34.974 113.922 35.2613 113.278 35.4104C112.932 35.4955 112.541 35.5381 112.105 35.5381C111.04 35.5381 110.138 35.1523 109.399 34.3806C108.659 33.6037 108.289 32.5181 108.289 31.1238C108.289 29.7509 108.662 28.636 109.407 27.7792C110.152 26.9225 111.125 26.4941 112.328 26.4941ZM114.619 30.2777C114.56 29.6551 114.425 29.1575 114.212 28.785C113.818 28.0932 113.161 27.7473 112.24 27.7473C111.58 27.7473 111.027 27.9868 110.58 28.4657C110.133 28.9393 109.896 29.5433 109.87 30.2777H114.619ZM123.08 26.6857L124.725 33.4228L126.393 26.6857H128.005L129.682 33.3828L131.43 26.6857H132.867L130.384 35.2347H128.891L127.151 28.6174L125.467 35.2347H123.974L121.508 26.6857H123.08ZM134.232 26.7256H135.692V35.2347H134.232V26.7256ZM134.232 23.5087H135.692V25.1371H134.232V23.5087ZM138.159 24.2989H139.612V26.6857H140.977V27.8591H139.612V33.4387C139.612 33.7367 139.713 33.9363 139.915 34.0374C140.027 34.0959 140.213 34.1252 140.474 34.1252C140.543 34.1252 140.617 34.1252 140.697 34.1252C140.777 34.1199 140.87 34.1119 140.977 34.1012V35.2347C140.812 35.2826 140.639 35.3172 140.458 35.3385C140.282 35.3598 140.091 35.3704 139.883 35.3704C139.213 35.3704 138.758 35.2002 138.518 34.8596C138.279 34.5137 138.159 34.0667 138.159 33.5185V27.8591H137.001V26.6857H138.159V24.2989ZM142.421 23.4688H143.858V27.8431C144.199 27.412 144.505 27.1087 144.776 26.9331C145.239 26.6298 145.817 26.4781 146.508 26.4781C147.748 26.4781 148.589 26.9118 149.031 27.7792C149.27 28.2529 149.39 28.9101 149.39 29.7509V35.2347H147.913V29.8467C147.913 29.2187 147.834 28.7584 147.674 28.4657C147.413 27.9974 146.924 27.7633 146.205 27.7633C145.609 27.7633 145.069 27.9682 144.585 28.3779C144.1 28.7877 143.858 29.562 143.858 30.7008V35.2347H142.421V23.4688ZM161.388 30.4294L159.607 25.2488L157.716 30.4294H161.388ZM158.777 23.5087H160.573L164.828 35.2347H163.088L161.898 31.7225H157.261L155.991 35.2347H154.363L158.777 23.5087ZM169.689 34.2689C170.36 34.2689 170.916 33.9895 171.357 33.4307C171.804 32.8666 172.028 32.0258 172.028 30.9083C172.028 30.2272 171.93 29.6418 171.733 29.1522C171.36 28.2103 170.679 27.7393 169.689 27.7393C168.694 27.7393 168.013 28.2369 167.646 29.232C167.449 29.7642 167.35 30.44 167.35 31.2595C167.35 31.9194 167.449 32.4808 167.646 32.9438C168.018 33.8272 168.699 34.2689 169.689 34.2689ZM165.969 26.7256H167.366V27.8591C167.654 27.4706 167.968 27.1699 168.308 26.9571C168.792 26.6378 169.362 26.4781 170.016 26.4781C170.985 26.4781 171.807 26.8506 172.483 27.5956C173.159 28.3353 173.497 29.3943 173.497 30.7726C173.497 32.6352 173.01 33.9655 172.036 34.7638C171.419 35.2693 170.7 35.5221 169.881 35.5221C169.237 35.5221 168.697 35.3811 168.26 35.099C168.005 34.9394 167.72 34.6653 167.406 34.2769V38.6432H165.969V26.7256ZM178.789 34.2689C179.46 34.2689 180.016 33.9895 180.457 33.4307C180.904 32.8666 181.128 32.0258 181.128 30.9083C181.128 30.2272 181.029 29.6418 180.832 29.1522C180.46 28.2103 179.779 27.7393 178.789 27.7393C177.794 27.7393 177.113 28.2369 176.746 29.232C176.549 29.7642 176.45 30.44 176.45 31.2595C176.45 31.9194 176.549 32.4808 176.746 32.9438C177.118 33.8272 177.799 34.2689 178.789 34.2689ZM175.069 26.7256H176.466V27.8591C176.754 27.4706 177.067 27.1699 177.408 26.9571C177.892 26.6378 178.462 26.4781 179.116 26.4781C180.085 26.4781 180.907 26.8506 181.583 27.5956C182.259 28.3353 182.597 29.3943 182.597 30.7726C182.597 32.6352 182.11 33.9655 181.136 34.7638C180.519 35.2693 179.8 35.5221 178.981 35.5221C178.337 35.5221 177.797 35.3811 177.36 35.099C177.105 34.9394 176.82 34.6653 176.506 34.2769V38.6432H175.069V26.7256ZM184.321 23.5087H185.758V35.2347H184.321V23.5087ZM191.481 26.4941C192.088 26.4941 192.676 26.6378 193.245 26.9251C193.814 27.2072 194.248 27.5744 194.546 28.0267C194.834 28.4577 195.025 28.9606 195.121 29.5354C195.206 29.9291 195.249 30.5571 195.249 31.4192H188.982C189.009 32.2866 189.214 32.9837 189.597 33.5106C189.98 34.0321 190.574 34.2928 191.377 34.2928C192.128 34.2928 192.726 34.0454 193.173 33.5505C193.429 33.2631 193.61 32.9305 193.716 32.5527H195.129C195.092 32.8666 194.967 33.2179 194.754 33.6063C194.546 33.9895 194.312 34.3035 194.051 34.5483C193.615 34.974 193.075 35.2613 192.431 35.4104C192.085 35.4955 191.694 35.5381 191.257 35.5381C190.193 35.5381 189.291 35.1523 188.551 34.3806C187.812 33.6037 187.442 32.5181 187.442 31.1238C187.442 29.7509 187.814 28.636 188.559 27.7792C189.304 26.9225 190.278 26.4941 191.481 26.4941ZM193.772 30.2777C193.713 29.6551 193.578 29.1575 193.365 28.785C192.971 28.0932 192.314 27.7473 191.393 27.7473C190.733 27.7473 190.18 27.9868 189.733 28.4657C189.286 28.9393 189.049 29.5433 189.022 30.2777H193.772Z" fill="white"/>
</g>
<defs>
<filter id="filter0_d_74_611" x="0" y="0.973877" width="300" height="62.1392" filterUnits="userSpaceOnUse" color-interpolation-filters="sRGB">
<feFlood flood-opacity="0" result="BackgroundImageFix"/>
<feColorMatrix in="SourceAlpha" type="matrix" values="0 0 0 0 0 0 0 0 0 0 0 0 0 0 0 0 0 0 127 0" result="hardAlpha"/>
<feOffset dx="2" dy="2"/>
<feGaussianBlur stdDeviation="4.5"/>
<feColorMatrix type="matrix" values="0 0 0 0 0 0 0 0 0 0 0 0 0 0 0 0 0 0 0.25 0"/>
<feBlend mode="normal" in2="BackgroundImageFix" result="effect1_dropShadow_74_611"/>
<feBlend mode="normal" in="SourceGraphic" in2="effect1_dropShadow_74_611" result="shape"/>
</filter>
<clipPath id="clip0_74_611">
<rect width="19.6174" height="19.6174" fill="white" transform="translate(19.2609 20.2347)"/>
</clipPath>
</defs>
</svg>
