<?xml version="1.0" encoding="utf-8"?>
<!-- Generator: Adobe Illustrator 22.1.0, SVG Export Plug-In . SVG Version: 6.00 Build 0)  -->
<svg version="1.1" id="Layer_1" xmlns="http://www.w3.org/2000/svg" xmlns:xlink="http://www.w3.org/1999/xlink" x="0px" y="0px"
	 viewBox="0 0 3000 2000" style="enable-background:new 0 0 3000 2000;" xml:space="preserve">
<style type="text/css">
	.st0{clip-path:url(#SVGID_2_);}
	.st1{opacity:0.3;fill:#DEE5F8;}
	.st2{opacity:0.8;fill:#4EBFFF;}
	.st3{fill:#4EBFFF;}
	.st4{opacity:0.4;fill:#FFFFFF;}
	.st5{fill:#629677;}
	.st6{opacity:0.1;fill:#DEE5F8;}
	.st7{fill:#2E5940;}
	.st8{fill:#F9B384;}
	.st9{fill:#102048;}
	.st10{fill:#FFFFFF;}
	.st11{opacity:0.3;}
	.st12{fill:#1F3C88;}
	.st13{fill:#E28B6D;}
	.st14{fill:#E86C4A;}
	.st15{fill:#6F3428;}
	.st16{fill:#BB9132;}
	.st17{fill:#FBC343;}
	.st18{opacity:0.6;fill:#FFFFFF;}
	.st19{opacity:0.15;fill:#102048;}
	.st20{fill:#708CD5;}
</style>
<g>
	<defs>
		<rect id="SVGID_1_" y="477.8" width="3000" height="1522.2"/>
	</defs>
	<clipPath id="SVGID_2_">
		<use xlink:href="#SVGID_1_"  style="overflow:visible;"/>
	</clipPath>
	<g class="st0">
		<path class="st1" d="M3349.4,1777c-4.3-29.6,3.5-59.7,21.7-83.5c45.4-59.7,67.5-130.5,57-202.6c-24.4-167.1-214.7-277.6-425-246.9
			c-141.1,20.6-255.4,99.6-308,199.8c-20.7,39.5-62.4,63.5-106.8,59.7c-16.5-1.4-33.5-1-50.8,1.5c-42.8,6.3-80.6,24.3-109.3,49.6
			c-27.3,24.1-64.8,32.9-100.2,24.2c-48.3-11.8-105.3-14.5-165-5.8c-67.1,9.8-126.6,32.4-171.7,62.2
			c-31.3,20.7-70.7,25.4-105.2,10.6c-26-11.1-55.2-15.4-85-11.1c-39.8,5.8-74,26.1-98.4,54.9c-18.9,22.3-44.9,37.7-73.9,41
			c-1.4,0.2-2.8,0.4-4.3,0.6c-3.2-2.8-6.3-5.8-9.2-8.9c-25.4-26.6-59.5-44.9-98.5-49.5c-26.8-3.2-52.8,0.4-76.5,9.4
			c-42.9,16.3-91,11.2-131-11.3c-45.1-25.4-101.9-44-164.8-51.4c-55.3-6.6-108-3.7-153.8,6.7c-44.3,10.1-91.2,1.2-127.7-25.7
			c-28.7-21.2-64.3-35.7-103.9-40.4c-12-1.4-23.9-1.9-35.6-1.4c-55.4,2.1-107-25.9-136.9-72.7c-59.8-93.4-174-164-311.4-180.3
			c-216.3-25.7-408.1,92.8-428.5,264.6c-8.3,70,13.2,138.1,56.2,195.9c23.8,32,35,71.6,30.3,111.1l-27.9,234.9
			c-10,84.3,50.3,160.8,134.6,170.8l1581.2,187.6c56.6,6.7,109.7-18.3,141.5-60.9l1534-223.9c60.8-8.9,102.8-65.3,94-126.1
			L3349.4,1777z"/>
		<g>
			<path class="st2" d="M3571.9,1796.3c-7.7-127.6-144.1-223.2-304.7-213.6c-136.1,8.2-245.9,89.3-271.6,191.6
				c-26.5-17.4-60.2-26.8-96.3-24.7c-50.4,3-93.4,27.9-117.4,63.2c-41.2-25.7-102.3-40-169.4-35.9c-75.2,4.5-140.1,30.9-176.6,67.3
				c-24.1-28.9-60.6-46.3-100.4-43.9c-42.7,2.6-79,27.4-98.7,62.9c-33.5-3.9-71.3-1.1-109.8,9.5c-107,29.6-178.6,108.5-159.8,176.3
				c12.7,45.8,63.4,74.7,127.9,79.6l15.8,262.5l1401.3-84.1l-20.3-338.2C3544.8,1923.3,3575.9,1862,3571.9,1796.3z"/>
			<path class="st2" d="M-200.3,1924c1.2-127.8,132.7-230.2,293.6-228.6c136.4,1.3,250.1,76.9,280.9,177.7
				c25.6-18.7,58.8-29.8,95-29.5c50.5,0.5,94.7,23.2,120.4,57.2c39.9-27.7,100.1-45.1,167.4-44.4c75.4,0.7,141.5,23.9,179.7,58.3
				c22.6-30.1,58.2-49.3,98-48.9c42.8,0.4,80.2,23.4,101.8,57.8c33.3-5.6,71.2-4.7,110.1,4c108.4,24.2,183.8,99.4,168.5,168
				c-10.3,46.4-59.5,77.8-123.7,85.9l-2.5,263L-115,2431l3.3-338.8C-166.9,2049.5-200.9,1989.8-200.3,1924z"/>
		</g>
	</g>
	<g class="st0">
		<g>
			<g>
				<path class="st3" d="M-69.9,1121.6c0,3.8,0.7,7.4,2,10.8H47.7c0.1-0.1,0.1-0.2,0.2-0.2c0,0.1,0,0.2,0.1,0.2c0,0,3.1,0,8.7,0.1
					c57.2,0.3,377.2,2.1,377.2-0.7c0-32.8-24.9-59.4-55.7-59.4c-7.2,0-14.1,1.4-20.4,4.1c-5.8-5-13.3-8-21.4-8
					c-11.7,0-22.1,6.2-28.3,15.8c-0.1-0.2-0.2-0.4-0.2-0.5c-6-12.8-17.6-23.5-32.6-30.6c-12.1-5.7-26.3-9-41.5-9
					c-4.4,0-8.8,0.3-13,0.8c-16.2-31.8-47.8-53.4-84.2-53.4c-46.5,0-85.3,35.4-94,82.2c-5.2-3.4-11.4-5.4-18-5.4
					c-13.2,0-24.7,8-30.4,19.7c-5.7-2.1-12.1-3.2-18.7-3.2c-18,0-33.5,8.4-40.9,20.6C-68.2,1110.3-69.9,1115.8-69.9,1121.6z"/>
			</g>
			<path class="st4" d="M-65.3,1105.5c14.8-4,30.5-3.8,46-3.6c34.4,0.4,68.9,0.8,103.3,1.2c41.2,0.5,78-23.2,120.2-19.4
				c20.2,1.9,40.8,10.2,60.2,11.3c15.4,0.9,34.1-1.8,43.6-11.2c-6-12.8-17.6-23.5-32.6-30.6c-12.1-5.7-26.3-9-41.5-9
				c-4.4,0-8.8,0.3-13,0.8c-16.2-31.8-47.8-53.4-84.2-53.4c-46.5,0-85.3,35.4-94,82.2c-5.2-3.4-11.4-5.4-18-5.4
				c-13.2,0-24.7,8-30.4,19.7c-5.7-2.1-12.1-3.2-18.7-3.2C-42.4,1084.9-57.9,1093.3-65.3,1105.5z"/>
		</g>
		<g>
			<path class="st2" d="M1427.6,1343.6c0,2.5,0.5,4.9,1.4,7.1h75.9c0.1,0,0.1-0.1,0.2-0.2c0,0.1,0,0.1,0,0.2
				c0,0,253.4,1.6,253.4-0.4c0-21.5-16.3-39-36.6-39c-4.7,0-9.2,1-13.4,2.7c-3.9-3.3-8.8-5.2-14-5.2c-7.7,0-14.5,4.1-18.6,10.4
				c-5.5-12.2-18.7-21.6-35.3-24.9c-4.3-0.9-8.9-1.4-13.6-1.4c-2.9,0-5.7,0.2-8.5,0.5c-10.6-20.8-31.4-35-55.2-35
				c-30.5,0-56,23.2-61.7,54c-3.4-2.3-7.5-3.6-11.8-3.6c-8.7,0-16.2,5.2-20,12.9c-3.7-1.4-7.9-2.2-12.3-2.2
				C1441,1319.5,1427.6,1330.3,1427.6,1343.6z"/>
			<path class="st4" d="M1427.6,1343.6c0,2.5,0.5,4.9,1.4,7.1h44c2.7-4.2,4.6-9,7.9-12.8c15-17.3,46.3-3.4,64.5-17.4
				c3.3-2.5,6-5.8,9.4-8.2c10.5-7,24.5-2.6,36.8,0.7c12.5,3.4,26.6,5.3,37.8-1.2c5.9-3.4,10.6-10.6,11.3-17.6
				c-4.3-0.9-8.9-1.4-13.6-1.4c-2.9,0-5.7,0.2-8.5,0.5c-10.6-20.8-31.4-35-55.2-35c-30.5,0-56,23.2-61.7,54
				c-3.4-2.3-7.5-3.6-11.8-3.6c-8.7,0-16.2,5.2-20,12.9c-3.7-1.4-7.9-2.2-12.3-2.2C1441,1319.5,1427.6,1330.3,1427.6,1343.6z"/>
		</g>
		<g>
			<path class="st3" d="M1189.2,784.5c0,3,374.1,0.6,374.1,0.6c0-0.1,0-0.1,0-0.2c0.1,0.1,0.2,0.1,0.2,0.2h112.1
				c1.3-3.3,1.9-6.8,1.9-10.5c0-19.6-19.7-35.5-44.1-35.5c-6.5,0-12.6,1.1-18.2,3.1c-5.5-11.3-16.7-19-29.5-19
				c-6.4,0-12.3,1.9-17.4,5.2c-8.4-45.4-46-79.7-91.1-79.7c-0.3,0-0.6,0-1,0c-34.8,0.3-65.1,21.2-80.6,51.7
				c-4.1-0.5-8.3-0.8-12.6-0.8c-33.4,0-61.9,16.2-72.1,38.8c-6-9.2-16.1-15.3-27.4-15.3c-7.8,0-15.1,2.9-20.8,7.8
				c-6.1-2.6-12.8-4-19.7-4c-21.6,0-40.2,13.5-48.8,33C1191.1,767.4,1189.2,775.7,1189.2,784.5z"/>
			<path class="st4" d="M1194.4,760c16.8,5.7,35.8,6.4,53.8,6.8c42,0.9,86.8,1.2,122.5-21c12.4-7.7,23.3-17.9,36.7-23.7
				c22.4-9.7,51.1-7.1,67.5-25.1c10.7-11.6,12.6-30.5,4.4-44.1c-0.9-1.4-1.8-2.8-2.9-4.1c-34.8,0.3-65.1,21.2-80.6,51.7
				c-4.1-0.5-8.3-0.8-12.6-0.8c-33.4,0-61.9,16.2-72.1,38.8c-6-9.2-16.1-15.3-27.4-15.3c-7.8,0-15.1,2.9-20.8,7.8
				c-6.1-2.6-12.8-4-19.7-4C1221.6,726.9,1203,740.5,1194.4,760z"/>
		</g>
	</g>
	<g class="st0">
		<g>
			<g>
				<path class="st3" d="M2249.1,1197.2c0,3.8,0.7,7.4,2,10.8h115.6c0.1-0.1,0.1-0.2,0.2-0.2c0,0.1,0,0.2,0.1,0.2c0,0,3.1,0,8.7,0.1
					c57.2,0.3,377.2,2.1,377.2-0.7c0-32.8-24.9-59.4-55.7-59.4c-7.2,0-14.1,1.4-20.4,4.1c-5.8-5-13.3-8-21.4-8
					c-11.7,0-22.1,6.2-28.3,15.8c-0.1-0.2-0.2-0.4-0.2-0.5c-6-12.8-17.6-23.5-32.6-30.6c-12.1-5.7-26.3-9-41.5-9
					c-4.4,0-8.8,0.3-13,0.8c-16.2-31.8-47.8-53.4-84.2-53.4c-46.5,0-85.3,35.4-94,82.2c-5.2-3.4-11.4-5.4-18-5.4
					c-13.2,0-24.7,8-30.4,19.7c-5.7-2.1-12.1-3.2-18.7-3.2c-18,0-33.5,8.4-40.9,20.6C2250.8,1186,2249.1,1191.5,2249.1,1197.2z"/>
			</g>
			<path class="st4" d="M2253.7,1181.2c14.8-4,30.5-3.8,46-3.6c34.4,0.4,68.9,0.8,103.3,1.2c41.2,0.5,78-23.2,120.2-19.4
				c20.2,1.9,40.8,10.2,60.2,11.3c15.4,0.9,34.1-1.8,43.6-11.2c-6-12.8-17.6-23.5-32.6-30.6c-12.1-5.7-26.3-9-41.5-9
				c-4.4,0-8.8,0.3-13,0.8c-16.2-31.8-47.8-53.4-84.2-53.4c-46.5,0-85.3,35.4-94,82.2c-5.2-3.4-11.4-5.4-18-5.4
				c-13.2,0-24.7,8-30.4,19.7c-5.7-2.1-12.1-3.2-18.7-3.2C2276.6,1160.6,2261.1,1169,2253.7,1181.2z"/>
		</g>
		<g>
			<path class="st2" d="M3746.6,1419.2c0,2.5,0.5,4.9,1.4,7.1h75.9c0.1,0,0.1-0.1,0.2-0.2c0,0.1,0,0.1,0,0.2
				c0,0,253.4,1.6,253.4-0.4c0-21.5-16.3-39-36.6-39c-4.7,0-9.2,1-13.4,2.7c-3.9-3.3-8.8-5.2-14-5.2c-7.7,0-14.5,4.1-18.6,10.4
				c-5.5-12.2-18.7-21.6-35.3-24.9c-4.3-0.9-8.9-1.4-13.6-1.4c-2.9,0-5.7,0.2-8.5,0.5c-10.6-20.8-31.4-35-55.2-35
				c-30.5,0-56,23.2-61.7,54c-3.4-2.3-7.5-3.6-11.8-3.6c-8.7,0-16.2,5.2-20,12.9c-3.7-1.4-7.9-2.2-12.3-2.2
				C3760,1395.2,3746.6,1406,3746.6,1419.2z"/>
			<path class="st4" d="M3746.6,1419.2c0,2.5,0.5,4.9,1.4,7.1h44c2.7-4.2,4.6-9,7.9-12.8c15-17.3,46.3-3.4,64.5-17.4
				c3.3-2.5,6-5.8,9.4-8.2c10.5-7,24.5-2.6,36.8,0.7c12.5,3.4,26.6,5.3,37.8-1.2c5.9-3.4,10.6-10.6,11.3-17.6
				c-4.3-0.9-8.9-1.4-13.6-1.4c-2.9,0-5.7,0.2-8.5,0.5c-10.6-20.8-31.4-35-55.2-35c-30.5,0-56,23.2-61.7,54
				c-3.4-2.3-7.5-3.6-11.8-3.6c-8.7,0-16.2,5.2-20,12.9c-3.7-1.4-7.9-2.2-12.3-2.2C3760,1395.2,3746.6,1406,3746.6,1419.2z"/>
		</g>
		<g>
			<path class="st3" d="M3508.3,860.1c0,3,374.1,0.6,374.1,0.6c0-0.1,0-0.1,0-0.2c0.1,0.1,0.2,0.1,0.2,0.2h112.1
				c1.3-3.3,1.9-6.8,1.9-10.5c0-19.6-19.7-35.5-44.1-35.5c-6.5,0-12.6,1.1-18.2,3.1c-5.5-11.3-16.7-19-29.5-19
				c-6.4,0-12.3,1.9-17.4,5.2c-8.4-45.4-46-79.7-91.1-79.7c-0.3,0-0.6,0-1,0c-34.8,0.3-65.1,21.2-80.6,51.7
				c-4.1-0.5-8.3-0.8-12.6-0.8c-33.4,0-61.9,16.2-72.1,38.8c-6-9.2-16.1-15.3-27.4-15.3c-7.8,0-15.1,2.9-20.8,7.8
				c-6.1-2.6-12.8-4-19.7-4c-21.6,0-40.2,13.5-48.8,33C3510.1,843,3508.3,851.4,3508.3,860.1z"/>
			<path class="st4" d="M3513.4,835.7c16.8,5.7,35.8,6.4,53.8,6.8c42,0.9,86.8,1.2,122.5-21c12.4-7.7,23.3-17.9,36.7-23.7
				c22.4-9.7,51.1-7.1,67.5-25.1c10.7-11.6,12.6-30.5,4.4-44.1c-0.9-1.4-1.8-2.8-2.9-4.1c-34.8,0.3-65.1,21.2-80.6,51.7
				c-4.1-0.5-8.3-0.8-12.6-0.8c-33.4,0-61.9,16.2-72.1,38.8c-6-9.2-16.1-15.3-27.4-15.3c-7.8,0-15.1,2.9-20.8,7.8
				c-6.1-2.6-12.8-4-19.7-4C3540.6,802.6,3522,816.1,3513.4,835.7z"/>
		</g>
	</g>
	<g class="st0">
		<g>
			<polygon class="st5" points="1500,2015.1 443.2,2020.5 201.1,2021.8 308.5,1807 419.3,1709.7 570.3,1662.8 640.2,1567.7 
				957.8,1567.7 1082.3,1671.4 1268.5,1731.8 1377.3,1833.9 1379.8,1837.7 1496.7,2010.2 			"/>
			<polygon class="st6" points="1496.7,2010.2 1415.8,2001.7 1225.7,1876.4 988,1840.6 914.2,1738.2 903.6,1663.9 807,1639.5 
				769.7,1567.7 957.8,1567.7 1082.3,1671.4 1268.5,1731.8 1377.3,1833.9 1379.8,1837.7 			"/>
			<polygon class="st7" points="644.6,1726.5 488,1818.2 443.2,2020.5 201.1,2021.8 308.5,1807 419.3,1709.7 570.3,1662.8 
				640.2,1567.7 			"/>
		</g>
		<g>
			<g>
				<path class="st8" d="M896.2,1532.1l0.3-26.1l-37.8,2.7l-1.1,21.6C869.7,1532.8,883.4,1533.4,896.2,1532.1z"/>
				<path class="st9" d="M937.2,1567.5c-10.3-16.8-24.3-22.4-41-24.5l0.1-10.9c-12.9,1.3-26.6,0.6-38.6-1.9l-1.9,37.3H937.2z"/>
			</g>
			<g>
				<path class="st9" d="M708.5,1534.7l-3.5,7.9c-16.7,2.1-31.7,11.1-45.5,25h79.4l8.4-32.8C733.8,1537.1,720.9,1536.9,708.5,1534.7
					z"/>
				<path class="st8" d="M747.4,1534.8l6.7-26.1l-33.4-1.8l-12.1,27.8C720.9,1536.9,733.8,1537.1,747.4,1534.8z"/>
			</g>
			<path class="st9" d="M913.7,1126.6c19.9,129.6,14.3,258.6-13.4,388.8h-47.6c5.7-84.5,10-185-3.3-251.5l-90.7,252.6h-51.9
				l85.6-359.6l29.4-57.7l69-8.3L913.7,1126.6z"/>
			<path class="st8" d="M977,850.1l12.8-38.3l34.6,8.1c2.6,12.8-12.9,32.3-24.5,46.9L977,850.1z"/>
			<polygon class="st8" points="860.3,987 820.5,987.4 816.5,935.3 816.1,929 856.1,928.7 857.5,948.5 			"/>
			<path class="st9" d="M857.3,944.9c-13,9.3-30.1,3.5-40.8-9.6l-0.5-6.2l40-0.4L857.3,944.9z"/>
			<path class="st8" d="M848,940.5c-20.2,4.6-42.8-8.3-51.7-25.6l-1.2-30.9l11.3-16l48.1,4.1c-0.2,0.1-0.2,0.7,0,1.9
				c0.6,3,2.4,9.4,4.1,17.1C862.9,909.8,866.2,936.3,848,940.5z"/>
			<path class="st10" d="M814.1,967.2c0,0,29.7,23.8,55.6-10.1l49,162.9c-30,21.2-68,28.5-113.6,22.6L814.1,967.2z"/>
			<g class="st11">
				<path class="st12" d="M820.5,987.4c4.1,1.5,8.3,2.4,12.5,2.8c4.2,0.4,8.4,0.3,12.5-0.5c4.1-0.8,8.1-2.1,11.8-4.1
					c1.9-0.9,3.6-2.2,5.5-3.3c1.8-1.1,3.4-2.6,5.3-3.8c-1.4,1.7-2.8,3.4-4.3,5c-1.7,1.4-3.3,3-5.2,4.1c-3.7,2.6-8,4.1-12.4,5
					C837.2,994.4,827.7,992.4,820.5,987.4z"/>
			</g>
			<path class="st3" d="M975.7,843c-26.9,45.4-53.1,85.3-76.8,104.3c-3.5,2.8-8,4.1-12.5,3.9c-8.9-0.5-18.1,0.6-28.4,3.1
				c2.1,81.5,9.9,157,37.6,203.2c16.7-4.8,37-12.6,48.2-22c-9.1-31-19.9-75.4-27.9-114.1l88.9-158.7L975.7,843z"/>
			<path class="st13" d="M858.7,891.1c-30.6,17.4-56-14.3-56-14.3l51.9-2.8C855.1,877,857,883.4,858.7,891.1z"/>
			<path class="st9" d="M803.1,909c3.8-4.9,5.5-13,2.1-29.4c11.1,12.6,27.7,15.6,52,4.8c0,0,15.8-6.2,12.2-22.3
				c-3.3-14.6-15.5-22.3-25-10.4c-21.6-6.3-42.8-7.4-52.3,12.2c0,0-30.3,15.8-4.5,41.3L803.1,909z"/>
			<g>
				<polygon class="st12" points="758.9,1245.5 753.7,1244.4 759.1,1219.9 723.1,1211.2 718.3,1233.5 713.1,1232.3 719,1204.7 
					765.5,1216 				"/>
			</g>
			<path class="st8" d="M737.7,1168.6c-0.9,1.2-4.2,26.4-4.2,26.4s-14.6,13.7-4.8,22c9.8,8.4,21.7,8.1,27.3,1.9
				c2-6.1,2.1-13.2-0.3-21.7l5.6-27.9L737.7,1168.6z"/>
			<polygon class="st14" points="785.6,1243.8 771.2,1304.7 765.7,1328.2 672.3,1293.2 684.6,1241.8 690.5,1217.4 			"/>
			<g>
				<polygon class="st15" points="1047.2,839 997.6,869 995.4,851.6 1032.7,829 				"/>
				<polygon class="st16" points="1020.4,836.4 1007.7,844.1 977.5,801.3 996.3,789.9 				"/>
				<path class="st17" d="M998.9,788.3L975,802.8c-5.3,3.2-12.3,2.1-16.2-2.7l-40-48.3l60.8-36.9l24.4,57.8
					C1006.4,778.4,1004.2,785.1,998.9,788.3z"/>
				<g>
					<path class="st17" d="M996,757.9l-3.3-1.4c9.2-22.1,7.6-40,0.8-44c-3.5-2.1-8.4,0.4-13.3,6.7l-2.8-2.2
						c8.8-11.1,15.5-9,17.9-7.5C1003.5,714.3,1006,733.7,996,757.9z"/>
				</g>
				<g>
					<path class="st17" d="M948.4,786.7c-26.1-2.3-42.2-13.5-42.6-23c-0.1-2.9,1-9.8,15-12.4l0.7,3.5c-7.9,1.5-12.3,4.7-12.1,8.7
						c0.4,7.8,15.6,17.5,39.4,19.6L948.4,786.7z"/>
				</g>
				<path class="st18" d="M970.5,746.2c-2.1-3.6-2-7.6,0.2-8.9c2.2-1.3,5.7,0.6,7.8,4.2c2.1,3.6,2,7.6-0.2,8.9
					C976.1,751.7,972.6,749.8,970.5,746.2z"/>
			</g>
			<path class="st8" d="M1024.4,818.9c0.9,6.2-3,11.7-11.3,11.7c-5.2,0-12.4-7.1-13.9-15.5c-1.3-6.9,1.4-11.5,6.3-13.5
				C1010.5,799.7,1022.7,807.3,1024.4,818.9z"/>
			<g>
				<g>
					
						<rect x="884.7" y="693.3" transform="matrix(0.3005 -0.9538 0.9538 0.3005 -62.1298 1347.389)" class="st17" width="5.6" height="45.5"/>
				</g>
				<g>
					
						<rect x="935.6" y="669.8" transform="matrix(0.1739 -0.9848 0.9848 0.1739 129.384 1499.4105)" class="st17" width="45.5" height="5.6"/>
				</g>
				<g>
					
						<rect x="912.1" y="659.4" transform="matrix(0.8422 -0.5391 0.5391 0.8422 -223.4289 600.8828)" class="st17" width="5.6" height="45.5"/>
				</g>
			</g>
			<path class="st3" d="M789.1,1068.9l-7.1,107.6c39.8-1.8,66.6-14.9,66.6-14.9c3.5-64.2-4.8-136.1-30.2-200.7
				c-64.6,24-82.8,103.5-92.4,221.6l37.8,4.4L789.1,1068.9z"/>
			<path class="st8" d="M803.7,919.7c-12.1,4.3-19.9,3.4-20.6-8.3c-0.4-6.7,6.5-12,12.5-9.2c2.6,1.2,5.1,3.5,7.4,6.7L803.7,919.7z"
				/>
			<path class="st19" d="M771.2,1304.7l-5.5,23.5l-93.3-35.1l12.3-51.3C696.1,1265.6,720.4,1295.1,771.2,1304.7z"/>
			<path class="st4" d="M907.7,984.6c1.6,5.1,3,10.3,4.4,15.4c1.4,5.2,2.6,10.4,3.8,15.5c1.2,5.2,2.3,10.4,3.4,15.7
				c1,5.2,2,10.5,2.7,15.8l-1.4,0.3c-1.6-5.1-3-10.3-4.4-15.4c-1.4-5.2-2.6-10.4-3.8-15.6c-1.2-5.2-2.3-10.4-3.3-15.7
				c-1-5.2-2-10.5-2.8-15.8L907.7,984.6z"/>
			<path class="st4" d="M791,1032.7c0.2,5.2,0.1,10.3,0.1,15.5c0,5.2-0.3,10.3-0.5,15.5c-0.2,5.2-0.5,10.3-1,15.4
				c-0.4,5.1-0.9,10.3-1.6,15.4l-1.4-0.1c-0.2-5.2-0.2-10.3-0.1-15.5c0.1-5.2,0.3-10.3,0.5-15.5c0.3-5.2,0.6-10.3,1-15.4
				c0.4-5.1,0.9-10.3,1.6-15.4L791,1032.7z"/>
			<path class="st20" d="M840.8,1286.3c1.6-5.9,3.4-11.7,5.3-17.5c1.8-5.8,3.9-11.5,5.8-17.3c2-5.7,4.1-11.5,6.2-17.2
				c2.2-5.7,4.4-11.4,6.8-17l1.3,0.5c-1.6,5.9-3.4,11.7-5.2,17.5c-1.9,5.8-3.8,11.6-5.8,17.3c-2.1,5.7-4.1,11.5-6.3,17.2
				c-2.2,5.7-4.4,11.4-6.8,17L840.8,1286.3z"/>
			<path class="st9" d="M796.4,913.2c-0.6-0.9-1.2-1.8-1.8-2.6c-0.6-0.8-1.2-1.7-1.9-2.2c-0.7-0.6-1.3-0.9-2-0.7
				c-0.7,0.1-1.5,0.9-2.3,1.5l-0.7-0.4c0.5-1,1-2.2,2.4-2.8c1.4-0.6,3.1,0.1,4,0.9c1.8,1.8,2.7,3.8,3.1,6.1L796.4,913.2z"/>
			<path class="st8" d="M998.7,820.8c1.3-4.9,0.6-9.4-1.5-9.9c-2.1-0.6-5.4,1.7-6.7,6.7c-1.3,4.9-2.8,12,0.6,13.6
				C997,833.9,997.4,825.7,998.7,820.8z"/>
		</g>
	</g>
</g>
</svg>
