<svg width="300" height="63" viewBox="0 0 300 63" fill="none" xmlns="http://www.w3.org/2000/svg">
<g filter="url(#filter0_d_74_598)">
<rect x="7" y="7" width="282" height="44.1391" rx="5" fill="#1877F2"/>
<g clip-path="url(#clip0_74_598)">
<rect width="19.6174" height="19.6174" transform="translate(19.2609 19.2609)" fill="#1877F2"/>
<path d="M38.4696 29.1268C38.4696 23.9353 34.2611 19.7268 29.0696 19.7268C23.8781 19.7268 19.6696 23.9353 19.6696 29.1268C19.6696 33.8186 23.1071 37.7074 27.6009 38.4126V31.844H25.2141V29.1268H27.6009V27.0559C27.6009 24.7 29.0042 23.3987 31.1514 23.3987C32.1798 23.3987 33.2556 23.5823 33.2556 23.5823V25.8955H32.0702C30.9025 25.8955 30.5384 26.6201 30.5384 27.3635V29.1268H33.1454L32.7286 31.844H30.5384V38.4126C35.0322 37.7074 38.4696 33.8186 38.4696 29.1268Z" fill="white"/>
</g>
<path d="M52.3387 28.4737C52.3387 26.4195 52.8895 24.8364 53.991 23.7242C54.9489 22.7557 56.1676 22.2714 57.647 22.2714C59.6266 22.2714 61.074 22.9206 61.9893 24.2191C62.4949 24.9481 62.7663 25.6799 62.8035 26.4142H60.345C60.1853 25.8501 59.9805 25.4244 59.7303 25.1371C59.2833 24.6262 58.6208 24.3707 57.7427 24.3707C56.8487 24.3707 56.1436 24.7326 55.6274 25.4563C55.1112 26.1748 54.8531 27.1938 54.8531 28.5136C54.8531 29.8333 55.1245 30.8231 55.6673 31.483C56.2155 32.1376 56.9099 32.4648 57.7507 32.4648C58.6128 32.4648 59.27 32.1828 59.7224 31.6187C59.9725 31.3154 60.18 30.8604 60.345 30.2537H62.7796C62.5667 31.5362 62.0213 32.5793 61.1432 33.3828C60.2705 34.1864 59.1503 34.5881 57.7827 34.5881C56.0904 34.5881 54.76 34.0453 53.7915 32.9597C52.823 31.8688 52.3387 30.3735 52.3387 28.4737ZM68.3832 32.6564C69.0484 32.6564 69.5593 32.4196 69.9158 31.946C70.2724 31.4724 70.4506 30.7992 70.4506 29.9265C70.4506 29.0537 70.2724 28.3832 69.9158 27.9149C69.5593 27.4413 69.0484 27.2045 68.3832 27.2045C67.718 27.2045 67.2045 27.4413 66.8426 27.9149C66.4861 28.3832 66.3078 29.0537 66.3078 29.9265C66.3078 30.7992 66.4861 31.4724 66.8426 31.946C67.2045 32.4196 67.718 32.6564 68.3832 32.6564ZM72.8373 29.9265C72.8373 31.2036 72.4702 32.2972 71.7358 33.2072C71.0014 34.1119 69.8865 34.5642 68.3912 34.5642C66.8958 34.5642 65.781 34.1119 65.0466 33.2072C64.3122 32.2972 63.945 31.2036 63.945 29.9265C63.945 28.6706 64.3122 27.5823 65.0466 26.6617C65.781 25.741 66.8958 25.2807 68.3912 25.2807C69.8865 25.2807 71.0014 25.741 71.7358 26.6617C72.4702 27.5823 72.8373 28.6706 72.8373 29.9265ZM79.2951 25.3526C80.1944 25.3526 80.9288 25.5894 81.4982 26.063C82.0729 26.5313 82.3603 27.3109 82.3603 28.4018V34.2609H80.0294V28.9686C80.0294 28.5109 79.9682 28.1597 79.8458 27.9149C79.6223 27.4679 79.1966 27.2444 78.5687 27.2444C77.797 27.2444 77.2675 27.5717 76.9802 28.2262C76.8312 28.5721 76.7567 29.0138 76.7567 29.5513V34.2609H74.4897V25.5761H76.6848V26.8453C76.9775 26.3983 77.2542 26.0763 77.515 25.8794C77.9833 25.5282 78.5766 25.3526 79.2951 25.3526ZM83.5736 27.2604V25.6399H84.7869V23.2133H87.0379V25.6399H88.4508V27.2604H87.0379V31.8582C87.0379 32.2147 87.0832 32.4382 87.1736 32.5287C87.2641 32.6138 87.5408 32.6564 88.0038 32.6564C88.073 32.6564 88.1448 32.6564 88.2193 32.6564C88.2991 32.6511 88.3763 32.6458 88.4508 32.6404V34.3407L87.3732 34.3806C86.2982 34.4179 85.5639 34.2316 85.1701 33.8218C84.9146 33.5611 84.7869 33.1593 84.7869 32.6165V27.2604H83.5736ZM92.2504 24.5224H89.9435V22.4231H92.2504V24.5224ZM89.9435 25.5601H92.2504V34.2609H89.9435V25.5601ZM99.2828 25.3526C100.182 25.3526 100.917 25.5894 101.486 26.063C102.061 26.5313 102.348 27.3109 102.348 28.4018V34.2609H100.017V28.9686C100.017 28.5109 99.956 28.1597 99.8336 27.9149C99.6101 27.4679 99.1844 27.2444 98.5564 27.2444C97.7848 27.2444 97.2553 27.5717 96.968 28.2262C96.819 28.5721 96.7444 29.0138 96.7444 29.5513V34.2609H94.4775V25.5761H96.6726V26.8453C96.9653 26.3983 97.242 26.0763 97.5028 25.8794C97.9711 25.5282 98.5644 25.3526 99.2828 25.3526ZM106.722 25.5601V30.8045C106.722 31.2994 106.781 31.6719 106.898 31.922C107.106 32.3637 107.513 32.5846 108.119 32.5846C108.896 32.5846 109.428 32.2706 109.716 31.6427C109.865 31.3021 109.939 30.8524 109.939 30.2936V25.5601H112.246V34.2609H110.035V33.0316C110.014 33.0582 109.961 33.138 109.875 33.2711C109.79 33.4041 109.689 33.5212 109.572 33.6223C109.216 33.9416 108.87 34.1598 108.534 34.2768C108.204 34.3939 107.816 34.4524 107.369 34.4524C106.081 34.4524 105.214 33.9895 104.767 33.0635C104.517 32.5526 104.392 31.7996 104.392 30.8045V25.5601H106.722ZM117.882 27.2045C117.355 27.2045 116.945 27.3694 116.652 27.6994C116.365 28.0293 116.184 28.4763 116.11 29.0404H119.646C119.609 28.4391 119.425 27.9841 119.095 27.6754C118.77 27.3615 118.366 27.2045 117.882 27.2045ZM117.882 25.3286C118.605 25.3286 119.257 25.4643 119.837 25.7357C120.417 26.0071 120.896 26.4355 121.274 27.0209C121.615 27.5371 121.836 28.1357 121.937 28.8169C121.995 29.216 122.019 29.7908 122.009 30.5411H116.054C116.086 31.4138 116.36 32.0258 116.876 32.377C117.19 32.5952 117.568 32.7043 118.009 32.7043C118.478 32.7043 118.858 32.5713 119.151 32.3052C119.311 32.1615 119.452 31.962 119.574 31.7065H121.897C121.838 32.2227 121.57 32.7469 121.091 33.279C120.346 34.1252 119.303 34.5482 117.962 34.5482C116.855 34.5482 115.878 34.1917 115.032 33.4786C114.186 32.7655 113.763 31.6054 113.763 29.9983C113.763 28.4923 114.143 27.3375 114.904 26.534C115.671 25.7304 116.663 25.3286 117.882 25.3286ZM132.202 25.5601H134.509L135.834 31.8263L137.191 25.5601H139.562L137.039 34.2609H134.7L133.335 27.9229L131.955 34.2609H129.592L127.149 25.5601H129.592L130.949 31.8023L132.202 25.5601ZM143.162 24.5224H140.855V22.4231H143.162V24.5224ZM140.855 25.5601H143.162V34.2609H140.855V25.5601ZM144.479 27.2604V25.6399H145.692V23.2133H147.943V25.6399H149.356V27.2604H147.943V31.8582C147.943 32.2147 147.988 32.4382 148.079 32.5287C148.169 32.6138 148.446 32.6564 148.909 32.6564C148.978 32.6564 149.05 32.6564 149.125 32.6564C149.204 32.6511 149.282 32.6458 149.356 32.6404V34.3407L148.278 34.3806C147.203 34.4179 146.469 34.2316 146.075 33.8218C145.82 33.5611 145.692 33.1593 145.692 32.6165V27.2604H144.479ZM155.614 25.3366C156.152 25.3366 156.639 25.4297 157.075 25.616C157.517 25.8022 157.879 26.0869 158.161 26.4701C158.4 26.7947 158.546 27.13 158.6 27.4759C158.653 27.8165 158.679 28.3752 158.679 29.1522V34.2609H156.357V28.9686C156.357 28.5003 156.277 28.1224 156.117 27.8351C155.91 27.4306 155.516 27.2284 154.936 27.2284C154.334 27.2284 153.877 27.4306 153.563 27.8351C153.254 28.2342 153.1 28.8063 153.1 29.5513V34.2609H150.833V22.5348H153.1V26.6936C153.43 26.1881 153.81 25.8368 154.241 25.6399C154.678 25.4377 155.135 25.3366 155.614 25.3366ZM165.544 22.5109H173.886V24.5783H167.987V27.2843H173.151V29.3278H167.987V34.2609H165.544V22.5109ZM180.152 30.0302C180.008 30.1207 179.862 30.1952 179.713 30.2537C179.569 30.3069 179.37 30.3575 179.114 30.4054L178.603 30.5012C178.124 30.5863 177.781 30.6901 177.574 30.8125C177.222 31.02 177.047 31.342 177.047 31.7784C177.047 32.1668 177.153 32.4489 177.366 32.6245C177.584 32.7948 177.848 32.8799 178.156 32.8799C178.646 32.8799 179.096 32.7362 179.505 32.4489C179.92 32.1615 180.136 31.6373 180.152 30.8764V30.0302ZM178.771 28.9686C179.191 28.9154 179.492 28.8488 179.673 28.769C179.998 28.6307 180.16 28.4151 180.16 28.1224C180.16 27.7659 180.035 27.5211 179.785 27.3881C179.54 27.2497 179.178 27.1805 178.699 27.1805C178.162 27.1805 177.781 27.3136 177.558 27.5796C177.398 27.7765 177.292 28.0426 177.238 28.3779H175.043C175.091 27.6169 175.304 26.9916 175.682 26.502C176.283 25.7357 177.316 25.3526 178.779 25.3526C179.732 25.3526 180.578 25.5415 181.317 25.9193C182.057 26.2972 182.427 27.0102 182.427 28.0586V32.0498C182.427 32.3265 182.432 32.6617 182.443 33.0555C182.459 33.3535 182.504 33.5558 182.579 33.6622C182.653 33.7686 182.765 33.8564 182.914 33.9256V34.2609H180.439C180.37 34.0853 180.322 33.9203 180.296 33.766C180.269 33.6116 180.248 33.436 180.232 33.2391C179.918 33.5797 179.556 33.8697 179.146 34.1092C178.657 34.3912 178.103 34.5323 177.486 34.5323C176.698 34.5323 176.046 34.3088 175.53 33.8617C175.019 33.4094 174.764 32.7708 174.764 31.946C174.764 30.8764 175.176 30.1021 176.001 29.6231C176.453 29.3624 177.119 29.1761 177.997 29.0644L178.771 28.9686ZM189.651 28.6812C189.608 28.3566 189.499 28.0639 189.324 27.8032C189.068 27.4519 188.672 27.2763 188.134 27.2763C187.368 27.2763 186.844 27.6568 186.562 28.4178C186.413 28.8222 186.338 29.3597 186.338 30.0302C186.338 30.6688 186.413 31.1823 186.562 31.5708C186.833 32.2945 187.344 32.6564 188.094 32.6564C188.626 32.6564 189.004 32.5127 189.228 32.2254C189.451 31.938 189.587 31.5655 189.635 31.1078H191.958C191.905 31.7996 191.654 32.4542 191.207 33.0715C190.494 34.0666 189.438 34.5642 188.038 34.5642C186.639 34.5642 185.609 34.1491 184.949 33.3189C184.289 32.4888 183.959 31.4112 183.959 30.0861C183.959 28.5907 184.324 27.428 185.053 26.5978C185.782 25.7677 186.788 25.3526 188.07 25.3526C189.161 25.3526 190.053 25.5974 190.744 26.0869C191.442 26.5765 191.854 27.4413 191.982 28.6812H189.651ZM196.987 27.2045C196.46 27.2045 196.05 27.3694 195.757 27.6994C195.47 28.0293 195.289 28.4763 195.215 29.0404H198.751C198.714 28.4391 198.53 27.9841 198.2 27.6754C197.875 27.3615 197.471 27.2045 196.987 27.2045ZM196.987 25.3286C197.71 25.3286 198.362 25.4643 198.942 25.7357C199.522 26.0071 200.001 26.4355 200.379 27.0209C200.72 27.5371 200.941 28.1357 201.042 28.8169C201.1 29.216 201.124 29.7908 201.114 30.5411H195.159C195.191 31.4138 195.465 32.0258 195.981 32.377C196.295 32.5952 196.673 32.7043 197.114 32.7043C197.583 32.7043 197.963 32.5713 198.256 32.3052C198.415 32.1615 198.557 31.962 198.679 31.7065H201.002C200.943 32.2227 200.674 32.7469 200.196 33.279C199.451 34.1252 198.408 34.5482 197.066 34.5482C195.96 34.5482 194.983 34.1917 194.137 33.4786C193.291 32.7655 192.868 31.6054 192.868 29.9983C192.868 28.4923 193.248 27.3375 194.009 26.534C194.776 25.7304 195.768 25.3286 196.987 25.3286ZM207.356 25.3685C208.5 25.3685 209.394 25.781 210.038 26.6058C210.687 27.4306 211.012 28.495 211.012 29.7987C211.012 31.1504 210.692 32.2706 210.054 33.1593C209.415 34.048 208.524 34.4924 207.38 34.4924C206.661 34.4924 206.084 34.3487 205.647 34.0613C205.387 33.891 205.105 33.593 204.801 33.1673V34.2609H202.574V22.5109H204.841V26.6936C205.129 26.2892 205.445 25.9805 205.791 25.7677C206.201 25.5016 206.722 25.3685 207.356 25.3685ZM206.773 32.6165C207.358 32.6165 207.813 32.3797 208.138 31.9061C208.463 31.4325 208.625 30.8098 208.625 30.0382C208.625 29.4209 208.545 28.91 208.385 28.5056C208.082 27.7393 207.523 27.3561 206.709 27.3561C205.884 27.3561 205.318 27.7313 205.009 28.4817C204.849 28.8808 204.769 29.397 204.769 30.0302C204.769 30.7752 204.934 31.3925 205.264 31.8821C205.594 32.3717 206.097 32.6165 206.773 32.6165ZM216.551 32.6564C217.217 32.6564 217.727 32.4196 218.084 31.946C218.441 31.4724 218.619 30.7992 218.619 29.9265C218.619 29.0537 218.441 28.3832 218.084 27.9149C217.727 27.4413 217.217 27.2045 216.551 27.2045C215.886 27.2045 215.373 27.4413 215.011 27.9149C214.654 28.3832 214.476 29.0537 214.476 29.9265C214.476 30.7992 214.654 31.4724 215.011 31.946C215.373 32.4196 215.886 32.6564 216.551 32.6564ZM221.006 29.9265C221.006 31.2036 220.638 32.2972 219.904 33.2072C219.17 34.1119 218.055 34.5642 216.559 34.5642C215.064 34.5642 213.949 34.1119 213.215 33.2072C212.48 32.2972 212.113 31.2036 212.113 29.9265C212.113 28.6706 212.48 27.5823 213.215 26.6617C213.949 25.741 215.064 25.2807 216.559 25.2807C218.055 25.2807 219.17 25.741 219.904 26.6617C220.638 27.5823 221.006 28.6706 221.006 29.9265ZM226.545 32.6564C227.21 32.6564 227.721 32.4196 228.078 31.946C228.434 31.4724 228.613 30.7992 228.613 29.9265C228.613 29.0537 228.434 28.3832 228.078 27.9149C227.721 27.4413 227.21 27.2045 226.545 27.2045C225.88 27.2045 225.367 27.4413 225.005 27.9149C224.648 28.3832 224.47 29.0537 224.47 29.9265C224.47 30.7992 224.648 31.4724 225.005 31.946C225.367 32.4196 225.88 32.6564 226.545 32.6564ZM230.999 29.9265C230.999 31.2036 230.632 32.2972 229.898 33.2072C229.163 34.1119 228.049 34.5642 226.553 34.5642C225.058 34.5642 223.943 34.1119 223.209 33.2072C222.474 32.2972 222.107 31.2036 222.107 29.9265C222.107 28.6706 222.474 27.5823 223.209 26.6617C223.943 25.741 225.058 25.2807 226.553 25.2807C228.049 25.2807 229.163 25.741 229.898 26.6617C230.632 27.5823 230.999 28.6706 230.999 29.9265ZM232.612 22.5348H234.847V28.8728L237.681 25.6H240.498L237.457 28.9287L240.618 34.2609H237.872L235.789 30.5411L234.847 31.5229V34.2609H232.612V22.5348Z" fill="white"/>
</g>
<defs>
<filter id="filter0_d_74_598" x="0" y="0" width="300" height="62.1392" filterUnits="userSpaceOnUse" color-interpolation-filters="sRGB">
<feFlood flood-opacity="0" result="BackgroundImageFix"/>
<feColorMatrix in="SourceAlpha" type="matrix" values="0 0 0 0 0 0 0 0 0 0 0 0 0 0 0 0 0 0 127 0" result="hardAlpha"/>
<feOffset dx="2" dy="2"/>
<feGaussianBlur stdDeviation="4.5"/>
<feColorMatrix type="matrix" values="0 0 0 0 0 0 0 0 0 0 0 0 0 0 0 0 0 0 0.25 0"/>
<feBlend mode="normal" in2="BackgroundImageFix" result="effect1_dropShadow_74_598"/>
<feBlend mode="normal" in="SourceGraphic" in2="effect1_dropShadow_74_598" result="shape"/>
</filter>
<clipPath id="clip0_74_598">
<rect width="19.6174" height="19.6174" fill="white" transform="translate(19.2609 19.2609)"/>
</clipPath>
</defs>
</svg>
