<svg width="300" height="63" viewBox="0 0 300 63" fill="none" xmlns="http://www.w3.org/2000/svg">
<g filter="url(#filter0_d_74_602)">
<rect x="7" y="7.48706" width="282" height="44.1391" rx="5" fill="white"/>
<rect width="19.6174" height="19.6174" transform="translate(19.2609 19.7479)" fill="white"/>
<path fill-rule="evenodd" clip-rule="evenodd" d="M38.0936 29.77C38.0936 29.1035 38.0338 28.4626 37.9227 27.8473H29.0696V31.4834H34.1285C33.9106 32.6584 33.2483 33.6539 32.2528 34.3205V36.679H35.2907C37.0681 35.0426 38.0936 32.6327 38.0936 29.77Z" fill="#4285F4"/>
<path fill-rule="evenodd" clip-rule="evenodd" d="M29.0695 38.9563C31.6075 38.9563 33.7353 38.1146 35.2906 36.6789L32.2527 34.3204C31.4109 34.8844 30.3342 35.2176 29.0695 35.2176C26.6212 35.2176 24.5489 33.5641 23.8098 31.3423H20.6693V33.7777C22.216 36.8498 25.3949 38.9563 29.0695 38.9563Z" fill="#34A853"/>
<path fill-rule="evenodd" clip-rule="evenodd" d="M23.81 31.3425C23.622 30.7785 23.5151 30.1761 23.5151 29.5565C23.5151 28.937 23.622 28.3345 23.81 27.7705V25.3351H20.6695C20.0329 26.6041 19.6697 28.0397 19.6697 29.5565C19.6697 31.0734 20.0329 32.509 20.6695 33.778L23.81 31.3425Z" fill="#FBBC05"/>
<path fill-rule="evenodd" clip-rule="evenodd" d="M29.0695 23.8951C30.4496 23.8951 31.6887 24.3694 32.6629 25.3009L35.359 22.6048C33.731 21.0879 31.6032 20.1565 29.0695 20.1565C25.3949 20.1565 22.216 22.2629 20.6693 25.335L23.8098 27.7705C24.5489 25.5487 26.6212 23.8951 29.0695 23.8951Z" fill="#EA4335"/>
<path d="M59.4039 30.9642H61.3995C61.3357 31.7252 61.1228 32.4037 60.7609 32.9997C60.3991 33.5904 59.8909 34.056 59.2363 34.3966C58.5818 34.7372 57.7862 34.9074 56.8496 34.9074C56.1312 34.9074 55.4846 34.7797 54.9099 34.5243C54.3352 34.2635 53.8429 33.8964 53.4332 33.4227C53.0234 32.9438 52.7094 32.3664 52.4912 31.6906C52.2784 31.0147 52.1719 30.2591 52.1719 29.4236V28.4577C52.1719 27.6222 52.281 26.8666 52.4992 26.1907C52.7227 25.5149 53.042 24.9375 53.4571 24.4586C53.8722 23.9743 54.3698 23.6045 54.9498 23.349C55.5352 23.0936 56.1924 22.9659 56.9214 22.9659C57.8474 22.9659 58.6297 23.1362 59.2682 23.4767C59.9068 23.8173 60.4017 24.2883 60.753 24.8896C61.1095 25.491 61.3277 26.1801 61.4075 26.957H59.4119C59.3587 26.4568 59.2416 26.0284 59.0607 25.6719C58.8851 25.3153 58.6243 25.0439 58.2784 24.8577C57.9325 24.6661 57.4802 24.5703 56.9214 24.5703C56.4638 24.5703 56.0647 24.6555 55.7241 24.8258C55.3835 24.996 55.0988 25.2462 54.87 25.5761C54.6412 25.906 54.4682 26.3131 54.3511 26.7974C54.2394 27.2763 54.1835 27.8245 54.1835 28.4418V29.4236C54.1835 30.009 54.2341 30.5411 54.3352 31.0201C54.4416 31.4937 54.6012 31.9008 54.8141 32.2413C55.0323 32.5819 55.309 32.8453 55.6443 33.0316C55.9795 33.2179 56.3813 33.311 56.8496 33.311C57.419 33.311 57.8793 33.2205 58.2305 33.0396C58.5871 32.8586 58.8558 32.5952 59.0368 32.2493C59.223 31.8981 59.3454 31.4697 59.4039 30.9642ZM62.6607 30.5251V30.3416C62.6607 29.7189 62.7512 29.1415 62.9321 28.6094C63.1131 28.0719 63.3738 27.6063 63.7144 27.2125C64.0603 26.8134 64.4807 26.5047 64.9756 26.2865C65.4758 26.063 66.0399 25.9513 66.6679 25.9513C67.3011 25.9513 67.8652 26.063 68.3601 26.2865C68.8604 26.5047 69.2834 26.8134 69.6293 27.2125C69.9752 27.6063 70.2386 28.0719 70.4196 28.6094C70.6005 29.1415 70.691 29.7189 70.691 30.3416V30.5251C70.691 31.1478 70.6005 31.7252 70.4196 32.2573C70.2386 32.7895 69.9752 33.2551 69.6293 33.6542C69.2834 34.048 68.863 34.3567 68.3681 34.5802C67.8732 34.7984 67.3118 34.9074 66.6838 34.9074C66.0506 34.9074 65.4838 34.7984 64.9836 34.5802C64.4887 34.3567 64.0683 34.048 63.7224 33.6542C63.3765 33.2551 63.1131 32.7895 62.9321 32.2573C62.7512 31.7252 62.6607 31.1478 62.6607 30.5251ZM64.5845 30.3416V30.5251C64.5845 30.9136 64.6244 31.2808 64.7042 31.6267C64.784 31.9726 64.9091 32.2759 65.0794 32.5367C65.2497 32.7975 65.4679 33.0023 65.7339 33.1513C66 33.3003 66.3167 33.3748 66.6838 33.3748C67.0404 33.3748 67.349 33.3003 67.6098 33.1513C67.8759 33.0023 68.0941 32.7975 68.2643 32.5367C68.4346 32.2759 68.5597 31.9726 68.6395 31.6267C68.7247 31.2808 68.7672 30.9136 68.7672 30.5251V30.3416C68.7672 29.9584 68.7247 29.5965 68.6395 29.256C68.5597 28.9101 68.432 28.6041 68.2564 28.338C68.0861 28.0719 67.8679 27.8644 67.6018 27.7154C67.3411 27.561 67.0297 27.4839 66.6679 27.4839C66.306 27.4839 65.992 27.561 65.726 27.7154C65.4652 27.8644 65.2497 28.0719 65.0794 28.338C64.9091 28.6041 64.784 28.9101 64.7042 29.256C64.6244 29.5965 64.5845 29.9584 64.5845 30.3416ZM74.2112 27.9548V34.7478H72.2874V26.1109H74.0994L74.2112 27.9548ZM73.8679 30.1101L73.2453 30.1021C73.2506 29.4901 73.3358 28.9287 73.5008 28.4178C73.671 27.9069 73.9052 27.4679 74.2032 27.1007C74.5065 26.7335 74.8684 26.4515 75.2888 26.2546C75.7092 26.0524 76.1775 25.9513 76.6937 25.9513C77.1088 25.9513 77.4839 26.0098 77.8192 26.1269C78.1598 26.2386 78.4498 26.4222 78.6893 26.6777C78.9341 26.9331 79.1203 27.2657 79.248 27.6755C79.3758 28.0799 79.4396 28.5775 79.4396 29.1681V34.7478H77.5079V29.1602C77.5079 28.7451 77.4467 28.4178 77.3243 28.1783C77.2072 27.9335 77.0343 27.7606 76.8054 27.6595C76.5819 27.5531 76.3026 27.4998 75.9673 27.4998C75.6374 27.4998 75.342 27.569 75.0813 27.7074C74.8205 27.8457 74.5997 28.0347 74.4187 28.2741C74.2431 28.5136 74.1074 28.7903 74.0116 29.1043C73.9158 29.4183 73.8679 29.7535 73.8679 30.1101ZM85.3625 26.1109V27.5158H80.4933V26.1109H85.3625ZM81.8982 23.9956H83.8219V32.3611C83.8219 32.6272 83.8592 32.832 83.9337 32.9757C84.0135 33.1141 84.1226 33.2072 84.261 33.2551C84.3993 33.303 84.5616 33.3269 84.7479 33.3269C84.8809 33.3269 85.0086 33.319 85.131 33.303C85.2534 33.287 85.3519 33.2711 85.4264 33.2551L85.4344 34.7239C85.2747 34.7717 85.0885 34.8143 84.8756 34.8516C84.6681 34.8888 84.4286 34.9074 84.1572 34.9074C83.7155 34.9074 83.3244 34.8303 82.9838 34.676C82.6432 34.5163 82.3771 34.2582 82.1855 33.9017C81.994 33.5451 81.8982 33.0715 81.8982 32.4808V23.9956ZM88.9067 26.1109V34.7478H86.9749V26.1109H88.9067ZM86.8472 23.8439C86.8472 23.5512 86.943 23.3091 87.1346 23.1175C87.3315 22.9206 87.6029 22.8222 87.9488 22.8222C88.2894 22.8222 88.5581 22.9206 88.755 23.1175C88.9519 23.3091 89.0504 23.5512 89.0504 23.8439C89.0504 24.1313 88.9519 24.3708 88.755 24.5623C88.5581 24.7539 88.2894 24.8497 87.9488 24.8497C87.6029 24.8497 87.3315 24.7539 87.1346 24.5623C86.943 24.3708 86.8472 24.1313 86.8472 23.8439ZM92.9218 27.9548V34.7478H90.998V26.1109H92.81L92.9218 27.9548ZM92.5785 30.1101L91.9559 30.1021C91.9612 29.4901 92.0464 28.9287 92.2114 28.4178C92.3817 27.9069 92.6158 27.4679 92.9138 27.1007C93.2171 26.7335 93.579 26.4515 93.9994 26.2546C94.4198 26.0524 94.8881 25.9513 95.4043 25.9513C95.8194 25.9513 96.1945 26.0098 96.5298 26.1269C96.8704 26.2386 97.1604 26.4222 97.3999 26.6777C97.6447 26.9331 97.8309 27.2657 97.9586 27.6755C98.0864 28.0799 98.1502 28.5775 98.1502 29.1681V34.7478H96.2185V29.1602C96.2185 28.7451 96.1573 28.4178 96.0349 28.1783C95.9178 27.9335 95.7449 27.7606 95.516 27.6595C95.2925 27.5531 95.0132 27.4998 94.6779 27.4998C94.348 27.4998 94.0526 27.569 93.7919 27.7074C93.5311 27.8457 93.3103 28.0347 93.1293 28.2741C92.9537 28.5136 92.818 28.7903 92.7222 29.1043C92.6264 29.4183 92.5785 29.7535 92.5785 30.1101ZM105.31 32.7123V26.1109H107.242V34.7478H105.422L105.31 32.7123ZM105.582 30.9163L106.228 30.9003C106.228 31.4804 106.164 32.0152 106.037 32.5048C105.909 32.989 105.712 33.4121 105.446 33.774C105.18 34.1305 104.839 34.4099 104.424 34.6121C104.009 34.809 103.512 34.9074 102.932 34.9074C102.511 34.9074 102.125 34.8463 101.774 34.7239C101.423 34.6015 101.12 34.4125 100.864 34.1571C100.614 33.9017 100.42 33.5691 100.282 33.1593C100.143 32.7496 100.074 32.26 100.074 31.6906V26.1109H101.998V31.7065C101.998 32.0205 102.035 32.2839 102.109 32.4968C102.184 32.7043 102.285 32.872 102.413 32.9997C102.541 33.1274 102.69 33.2179 102.86 33.2711C103.03 33.3243 103.211 33.3509 103.403 33.3509C103.951 33.3509 104.382 33.2445 104.696 33.0316C105.015 32.8134 105.241 32.5207 105.374 32.1535C105.513 31.7864 105.582 31.3739 105.582 30.9163ZM113.021 34.9074C112.383 34.9074 111.805 34.8037 111.289 34.5961C110.778 34.3833 110.342 34.0879 109.98 33.7101C109.624 33.3323 109.349 32.8879 109.158 32.377C108.966 31.8662 108.87 31.3154 108.87 30.7247V30.4054C108.87 29.7296 108.969 29.1176 109.166 28.5695C109.363 28.0214 109.637 27.5531 109.988 27.1646C110.339 26.7708 110.754 26.4701 111.233 26.2626C111.712 26.055 112.231 25.9513 112.79 25.9513C113.407 25.9513 113.947 26.055 114.41 26.2626C114.873 26.4701 115.256 26.7628 115.56 27.1406C115.868 27.5131 116.097 27.9575 116.246 28.4737C116.401 28.9899 116.478 29.5593 116.478 30.1819V31.0041H109.804V29.6231H114.578V29.4715C114.567 29.1256 114.498 28.801 114.37 28.4976C114.248 28.1943 114.059 27.9495 113.804 27.7633C113.548 27.577 113.208 27.4839 112.782 27.4839C112.463 27.4839 112.178 27.5531 111.928 27.6914C111.683 27.8245 111.478 28.0187 111.313 28.2741C111.148 28.5296 111.02 28.8382 110.93 29.2001C110.845 29.5566 110.802 29.9584 110.802 30.4054V30.7247C110.802 31.1025 110.853 31.4538 110.954 31.7784C111.06 32.0977 111.215 32.377 111.417 32.6165C111.619 32.856 111.864 33.0449 112.151 33.1833C112.439 33.3163 112.766 33.3828 113.133 33.3828C113.596 33.3828 114.008 33.2897 114.37 33.1034C114.732 32.9172 115.046 32.6538 115.312 32.3132L116.326 33.295C116.14 33.5664 115.898 33.8272 115.6 34.0773C115.302 34.3221 114.937 34.5216 114.506 34.676C114.08 34.8303 113.585 34.9074 113.021 34.9074ZM124.396 32.832L126.392 26.1109H127.621L127.286 28.1225L125.274 34.7478H124.173L124.396 32.832ZM123.223 26.1109L124.779 32.864L124.907 34.7478H123.678L121.339 26.1109H123.223ZM129.489 32.7841L130.998 26.1109H132.873L130.543 34.7478H129.313L129.489 32.7841ZM127.829 26.1109L129.8 32.7522L130.048 34.7478H128.946L126.911 28.1145L126.575 26.1109H127.829ZM136.242 26.1109V34.7478H134.31V26.1109H136.242ZM134.182 23.8439C134.182 23.5512 134.278 23.3091 134.47 23.1175C134.667 22.9206 134.938 22.8222 135.284 22.8222C135.625 22.8222 135.893 22.9206 136.09 23.1175C136.287 23.3091 136.386 23.5512 136.386 23.8439C136.386 24.1313 136.287 24.3708 136.09 24.5623C135.893 24.7539 135.625 24.8497 135.284 24.8497C134.938 24.8497 134.667 24.7539 134.47 24.5623C134.278 24.3708 134.182 24.1313 134.182 23.8439ZM142.309 26.1109V27.5158H137.439V26.1109H142.309ZM138.844 23.9956H140.768V32.3611C140.768 32.6272 140.805 32.832 140.88 32.9757C140.96 33.1141 141.069 33.2072 141.207 33.2551C141.345 33.303 141.508 33.3269 141.694 33.3269C141.827 33.3269 141.955 33.319 142.077 33.303C142.199 33.287 142.298 33.2711 142.372 33.2551L142.38 34.7239C142.221 34.7717 142.034 34.8143 141.822 34.8516C141.614 34.8888 141.375 34.9074 141.103 34.9074C140.661 34.9074 140.27 34.8303 139.93 34.676C139.589 34.5163 139.323 34.2582 139.132 33.9017C138.94 33.5451 138.844 33.0715 138.844 32.4808V23.9956ZM145.693 22.4869V34.7478H143.777V22.4869H145.693ZM145.358 30.1101L144.735 30.1021C144.74 29.5061 144.823 28.9553 144.983 28.4497C145.148 27.9442 145.376 27.5052 145.669 27.1327C145.967 26.7548 146.324 26.4648 146.739 26.2626C147.154 26.055 147.614 25.9513 148.12 25.9513C148.545 25.9513 148.929 26.0098 149.269 26.1269C149.615 26.244 149.913 26.4329 150.163 26.6936C150.413 26.9491 150.602 27.2843 150.73 27.6994C150.863 28.1092 150.929 28.6094 150.929 29.2001V34.7478H148.998V29.1841C148.998 28.769 148.937 28.4391 148.814 28.1943C148.697 27.9495 148.524 27.7739 148.295 27.6675C148.066 27.5557 147.787 27.4998 147.457 27.4998C147.111 27.4998 146.805 27.569 146.539 27.7074C146.278 27.8457 146.06 28.0347 145.885 28.2741C145.709 28.5136 145.576 28.7903 145.485 29.1043C145.4 29.4183 145.358 29.7535 145.358 30.1101ZM166.064 28.8089V33.2471C165.899 33.4653 165.641 33.7048 165.29 33.9655C164.944 34.221 164.483 34.4418 163.909 34.6281C163.334 34.8143 162.618 34.9074 161.761 34.9074C161.032 34.9074 160.365 34.7851 159.758 34.5403C159.151 34.2901 158.627 33.9256 158.185 33.4467C157.749 32.9677 157.411 32.385 157.172 31.6985C156.932 31.0067 156.812 30.2192 156.812 29.3358V28.5296C156.812 27.6515 156.922 26.8692 157.14 26.1828C157.363 25.491 157.683 24.9056 158.098 24.4266C158.513 23.9477 159.013 23.5858 159.598 23.341C160.189 23.0909 160.857 22.9659 161.602 22.9659C162.554 22.9659 163.342 23.1255 163.965 23.4448C164.593 23.7588 165.077 24.1952 165.417 24.7539C165.758 25.3127 165.973 25.9513 166.064 26.6697H164.1C164.036 26.2652 163.911 25.9034 163.725 25.5841C163.544 25.2648 163.283 25.0147 162.943 24.8337C162.608 24.6475 162.171 24.5544 161.634 24.5544C161.171 24.5544 160.764 24.6422 160.412 24.8178C160.061 24.9934 159.769 25.2515 159.534 25.5921C159.306 25.9326 159.133 26.3477 159.016 26.8373C158.898 27.3269 158.84 27.8857 158.84 28.5136V29.3358C158.84 29.9744 158.906 30.5411 159.04 31.036C159.178 31.5309 159.375 31.9487 159.63 32.2892C159.891 32.6298 160.208 32.8879 160.58 33.0635C160.953 33.2338 161.373 33.319 161.841 33.319C162.299 33.319 162.674 33.2817 162.967 33.2072C163.259 33.1274 163.491 33.0343 163.661 32.9278C163.837 32.8161 163.973 32.7096 164.068 32.6085V30.3016H161.65V28.8089H166.064ZM167.724 30.5251V30.3416C167.724 29.7189 167.815 29.1415 167.996 28.6094C168.177 28.0719 168.437 27.6063 168.778 27.2125C169.124 26.8134 169.544 26.5047 170.039 26.2865C170.539 26.063 171.103 25.9513 171.731 25.9513C172.365 25.9513 172.929 26.063 173.424 26.2865C173.924 26.5047 174.347 26.8134 174.693 27.2125C175.039 27.6063 175.302 28.0719 175.483 28.6094C175.664 29.1415 175.755 29.7189 175.755 30.3416V30.5251C175.755 31.1478 175.664 31.7252 175.483 32.2573C175.302 32.7895 175.039 33.2551 174.693 33.6542C174.347 34.048 173.927 34.3567 173.432 34.5802C172.937 34.7984 172.375 34.9074 171.747 34.9074C171.114 34.9074 170.547 34.7984 170.047 34.5802C169.552 34.3567 169.132 34.048 168.786 33.6542C168.44 33.2551 168.177 32.7895 167.996 32.2573C167.815 31.7252 167.724 31.1478 167.724 30.5251ZM169.648 30.3416V30.5251C169.648 30.9136 169.688 31.2808 169.768 31.6267C169.848 31.9726 169.973 32.2759 170.143 32.5367C170.313 32.7975 170.531 33.0023 170.797 33.1513C171.064 33.3003 171.38 33.3748 171.747 33.3748C172.104 33.3748 172.413 33.3003 172.673 33.1513C172.939 33.0023 173.158 32.7975 173.328 32.5367C173.498 32.2759 173.623 31.9726 173.703 31.6267C173.788 31.2808 173.831 30.9136 173.831 30.5251V30.3416C173.831 29.9584 173.788 29.5965 173.703 29.256C173.623 28.9101 173.496 28.6041 173.32 28.338C173.15 28.0719 172.931 27.8644 172.665 27.7154C172.405 27.561 172.093 27.4839 171.731 27.4839C171.37 27.4839 171.056 27.561 170.79 27.7154C170.529 27.8644 170.313 28.0719 170.143 28.338C169.973 28.6041 169.848 28.9101 169.768 29.256C169.688 29.5965 169.648 29.9584 169.648 30.3416ZM177 30.5251V30.3416C177 29.7189 177.09 29.1415 177.271 28.6094C177.452 28.0719 177.713 27.6063 178.053 27.2125C178.399 26.8134 178.82 26.5047 179.315 26.2865C179.815 26.063 180.379 25.9513 181.007 25.9513C181.64 25.9513 182.204 26.063 182.699 26.2865C183.199 26.5047 183.622 26.8134 183.968 27.2125C184.314 27.6063 184.578 28.0719 184.759 28.6094C184.94 29.1415 185.03 29.7189 185.03 30.3416V30.5251C185.03 31.1478 184.94 31.7252 184.759 32.2573C184.578 32.7895 184.314 33.2551 183.968 33.6542C183.622 34.048 183.202 34.3567 182.707 34.5802C182.212 34.7984 181.651 34.9074 181.023 34.9074C180.39 34.9074 179.823 34.7984 179.323 34.5802C178.828 34.3567 178.407 34.048 178.061 33.6542C177.716 33.2551 177.452 32.7895 177.271 32.2573C177.09 31.7252 177 31.1478 177 30.5251ZM178.924 30.3416V30.5251C178.924 30.9136 178.963 31.2808 179.043 31.6267C179.123 31.9726 179.248 32.2759 179.418 32.5367C179.589 32.7975 179.807 33.0023 180.073 33.1513C180.339 33.3003 180.656 33.3748 181.023 33.3748C181.379 33.3748 181.688 33.3003 181.949 33.1513C182.215 33.0023 182.433 32.7975 182.603 32.5367C182.774 32.2759 182.899 31.9726 182.979 31.6267C183.064 31.2808 183.106 30.9136 183.106 30.5251V30.3416C183.106 29.9584 183.064 29.5965 182.979 29.256C182.899 28.9101 182.771 28.6041 182.595 28.338C182.425 28.0719 182.207 27.8644 181.941 27.7154C181.68 27.561 181.369 27.4839 181.007 27.4839C180.645 27.4839 180.331 27.561 180.065 27.7154C179.804 27.8644 179.589 28.0719 179.418 28.338C179.248 28.6041 179.123 28.9101 179.043 29.256C178.963 29.5965 178.924 29.9584 178.924 30.3416ZM192.174 26.1109H193.922V34.5083C193.922 35.2853 193.757 35.9452 193.427 36.488C193.097 37.0308 192.637 37.4432 192.046 37.7252C191.456 38.0126 190.772 38.1563 189.995 38.1563C189.665 38.1563 189.298 38.1084 188.893 38.0126C188.494 37.9168 188.106 37.7625 187.728 37.5496C187.356 37.3421 187.044 37.068 186.794 36.7274L187.696 35.5939C188.005 35.9611 188.345 36.2299 188.718 36.4001C189.09 36.5704 189.481 36.6556 189.891 36.6556C190.333 36.6556 190.708 36.5731 191.017 36.4081C191.331 36.2485 191.573 36.0117 191.743 35.6977C191.913 35.3837 191.999 35.0006 191.999 34.5482V28.0666L192.174 26.1109ZM186.307 30.5251V30.3575C186.307 29.703 186.387 29.1069 186.547 28.5695C186.706 28.0267 186.935 27.561 187.233 27.1726C187.531 26.7788 187.893 26.4781 188.319 26.2706C188.744 26.0577 189.226 25.9513 189.764 25.9513C190.322 25.9513 190.799 26.0524 191.192 26.2546C191.591 26.4568 191.924 26.7468 192.19 27.1247C192.456 27.4972 192.664 27.9442 192.813 28.4657C192.967 28.9819 193.082 29.5566 193.156 30.1899V30.7247C193.087 31.342 192.97 31.9061 192.805 32.417C192.64 32.9278 192.422 33.3695 192.15 33.742C191.879 34.1145 191.544 34.4019 191.144 34.6041C190.751 34.8063 190.285 34.9074 189.748 34.9074C189.221 34.9074 188.744 34.7984 188.319 34.5802C187.898 34.362 187.536 34.056 187.233 33.6622C186.935 33.2684 186.706 32.8054 186.547 32.2733C186.387 31.7358 186.307 31.1531 186.307 30.5251ZM188.231 30.3575V30.5251C188.231 30.9189 188.268 31.2861 188.343 31.6267C188.422 31.9673 188.542 32.268 188.702 32.5287C188.867 32.7841 189.074 32.9864 189.324 33.1354C189.58 33.2791 189.881 33.3509 190.226 33.3509C190.679 33.3509 191.049 33.2551 191.336 33.0635C191.629 32.872 191.852 32.6139 192.007 32.2892C192.166 31.9593 192.278 31.5921 192.342 31.1877V29.7429C192.31 29.4289 192.243 29.1362 192.142 28.8648C192.046 28.5934 191.916 28.3566 191.751 28.1544C191.586 27.9469 191.379 27.7872 191.129 27.6755C190.878 27.5584 190.583 27.4998 190.242 27.4998C189.897 27.4998 189.596 27.5743 189.34 27.7233C189.085 27.8723 188.875 28.0772 188.71 28.338C188.55 28.5987 188.43 28.9021 188.351 29.248C188.271 29.5939 188.231 29.9637 188.231 30.3575ZM197.977 22.4869V34.7478H196.046V22.4869H197.977ZM203.892 34.9074C203.254 34.9074 202.676 34.8037 202.16 34.5961C201.649 34.3833 201.213 34.0879 200.851 33.7101C200.494 33.3323 200.22 32.8879 200.029 32.377C199.837 31.8662 199.741 31.3154 199.741 30.7247V30.4054C199.741 29.7296 199.84 29.1176 200.037 28.5695C200.234 28.0214 200.508 27.5531 200.859 27.1646C201.21 26.7708 201.625 26.4701 202.104 26.2626C202.583 26.055 203.102 25.9513 203.661 25.9513C204.278 25.9513 204.818 26.055 205.281 26.2626C205.744 26.4701 206.127 26.7628 206.431 27.1406C206.739 27.5131 206.968 27.9575 207.117 28.4737C207.271 28.9899 207.349 29.5593 207.349 30.1819V31.0041H200.675V29.6231H205.449V29.4715C205.438 29.1256 205.369 28.801 205.241 28.4976C205.119 28.1943 204.93 27.9495 204.675 27.7633C204.419 27.577 204.079 27.4839 203.653 27.4839C203.334 27.4839 203.049 27.5531 202.799 27.6914C202.554 27.8245 202.349 28.0187 202.184 28.2741C202.019 28.5296 201.891 28.8382 201.801 29.2001C201.716 29.5566 201.673 29.9584 201.673 30.4054V30.7247C201.673 31.1025 201.724 31.4538 201.825 31.7784C201.931 32.0977 202.086 32.377 202.288 32.6165C202.49 32.856 202.735 33.0449 203.022 33.1833C203.31 33.3163 203.637 33.3828 204.004 33.3828C204.467 33.3828 204.879 33.2897 205.241 33.1034C205.603 32.9172 205.917 32.6538 206.183 32.3132L207.197 33.295C207.011 33.5664 206.769 33.8272 206.471 34.0773C206.173 34.3221 205.808 34.5216 205.377 34.676C204.951 34.8303 204.456 34.9074 203.892 34.9074Z" fill="black" fill-opacity="0.54"/>
</g>
<defs>
<filter id="filter0_d_74_602" x="0" y="0.487061" width="300" height="62.1392" filterUnits="userSpaceOnUse" color-interpolation-filters="sRGB">
<feFlood flood-opacity="0" result="BackgroundImageFix"/>
<feColorMatrix in="SourceAlpha" type="matrix" values="0 0 0 0 0 0 0 0 0 0 0 0 0 0 0 0 0 0 127 0" result="hardAlpha"/>
<feOffset dx="2" dy="2"/>
<feGaussianBlur stdDeviation="4.5"/>
<feColorMatrix type="matrix" values="0 0 0 0 0 0 0 0 0 0 0 0 0 0 0 0 0 0 0.25 0"/>
<feBlend mode="normal" in2="BackgroundImageFix" result="effect1_dropShadow_74_602"/>
<feBlend mode="normal" in="SourceGraphic" in2="effect1_dropShadow_74_602" result="shape"/>
</filter>
</defs>
</svg>
