<svg width="1080" height="88" viewBox="0 0 1080 88" fill="none" xmlns="http://www.w3.org/2000/svg">
<g clip-path="url(#clip0_73_163)">
<path opacity="0.3" d="M1041.48 42.3638C1040.15 35.9534 1042.57 29.4347 1048.24 24.2805C1062.36 11.3514 1069.24 -3.98152 1065.97 -19.596C1058.38 -55.7843 999.168 -79.715 933.733 -73.0664C889.83 -68.6051 854.266 -51.4963 837.899 -29.7963C831.459 -21.2419 818.484 -16.0443 804.669 -16.8673C799.535 -17.1705 794.245 -17.0838 788.862 -16.5424C775.545 -15.178 763.784 -11.2798 754.854 -5.80067C746.359 -0.581408 734.691 1.32437 723.677 -0.559762C708.648 -3.11525 690.913 -3.69999 672.337 -1.81586C651.459 0.306495 632.946 5.20092 618.913 11.6546C609.174 16.1376 596.915 17.1554 586.18 13.9502C578.09 11.5463 569.005 10.6151 559.733 11.5463C547.349 12.8024 536.708 17.1987 529.116 23.4359C523.235 28.2653 515.145 31.6004 506.122 32.3151C505.686 32.3584 505.251 32.4017 504.784 32.445C503.788 31.8387 502.824 31.1889 501.921 30.5176C494.018 24.7569 483.408 20.7937 471.273 19.7975C462.934 19.1045 454.844 19.8842 447.47 21.8333C434.122 25.3633 419.156 24.2588 406.71 19.386C392.677 13.8852 375.004 9.8571 355.433 8.2545C338.226 6.82516 321.828 7.45322 307.578 9.70551C293.794 11.8928 279.201 9.96538 267.844 4.13973C258.914 -0.451489 247.837 -3.59169 235.516 -4.60955C231.782 -4.91275 228.079 -5.02103 224.439 -4.91275C207.201 -4.45796 191.146 -10.5218 181.843 -20.6572C163.267 -40.8412 127.734 -56.1308 84.9511 -59.6825C17.6496 -65.2266 -42.0286 -39.5635 -48.3761 -2.37893C-50.9586 12.7808 -44.2689 27.529 -30.8895 40.0465C-23.4842 46.9767 -19.9993 55.5527 -21.4617 64.1071L-30.1428 114.979C-33.2543 133.235 -14.492 149.803 11.7378 151.968L503.726 192.596C521.337 194.047 537.859 188.633 547.753 179.407L1025.06 130.918C1043.97 128.991 1057.04 116.776 1054.3 103.609L1041.48 42.3638Z" fill="#DEE5F8"/>
<path opacity="0.8" d="M1110.71 46.5435C1108.32 18.9096 1065.88 -1.79422 1015.91 0.284826C973.56 2.06068 939.396 19.6243 931.399 41.7791C923.154 38.0108 912.668 35.9751 901.436 36.4299C885.754 37.0796 872.374 42.4721 864.907 50.1169C852.088 44.5511 833.076 41.4542 812.198 42.3421C788.8 43.3167 768.606 49.0341 757.25 56.9171C749.751 50.6583 738.394 46.8901 726.01 47.4098C712.724 47.9729 701.43 53.3438 695.3 61.0319C684.876 60.1873 673.115 60.7937 661.136 63.0893C627.843 69.4997 605.565 86.5868 611.414 101.27C615.366 111.189 631.141 117.448 651.21 118.509L656.126 175.358L1092.14 157.144L1085.82 83.9014C1102.28 74.0692 1111.96 60.772 1110.71 46.5435Z" fill="#4EBFFF"/>
<path opacity="0.8" d="M-63 74.1991C-62.6266 46.5219 -21.7106 24.3454 28.3532 24.6919C70.7938 24.9735 106.171 41.3459 115.755 63.1759C123.72 59.1261 134.05 56.7222 145.314 56.7872C161.027 56.8954 174.78 61.8115 182.776 69.1748C195.191 63.1759 213.922 59.4076 234.862 59.5592C258.323 59.7108 278.89 64.7352 290.776 72.1851C297.808 65.6664 308.885 61.5083 321.268 61.5949C334.586 61.6816 346.223 66.6626 352.943 74.1125C363.305 72.8997 375.097 73.0946 387.201 74.9788C420.929 80.2197 444.39 96.5055 439.629 111.362C436.424 121.411 421.116 128.211 401.14 129.965L400.362 186.922L-36.459 183.998L-35.4323 110.626C-52.5765 101.378 -63.1867 88.4492 -63 74.1991Z" fill="#4EBFFF"/>
<path d="M404.12 93.9283L75.3291 95.1194L0 95.3793L33.3862 48.8824L67.8615 27.8104L114.845 17.6318L136.594 -2.96375H235.415L274.153 19.4942L332.089 32.5749L365.942 54.6864L366.751 55.5093L403.093 92.8888L404.12 93.9283Z" fill="#629677"/>
<path opacity="0.1" d="M403.093 92.8887L377.952 91.0262L318.772 63.8904L244.812 56.1373L221.849 33.9825L218.551 17.87L188.525 12.5857L176.888 -2.96375H235.415L274.153 19.4942L332.089 32.5749L365.942 54.6863L366.751 55.5093L403.093 92.8887Z" fill="#DEE5F8"/>
<path d="M137.994 31.4271L89.2685 51.3079L75.329 95.1194L0 95.3793L33.3862 48.8824L67.8615 27.8104L114.845 17.6318L136.594 -2.96375L137.994 31.4271Z" fill="#2E5940"/>
</g>
<defs>
<clipPath id="clip0_73_163">
<rect width="1080" height="88" fill="white"/>
</clipPath>
</defs>
</svg>
