<svg width="73" height="73" viewBox="0 0 73 73" fill="none" xmlns="http://www.w3.org/2000/svg">
<path d="M36.5 73C56.6584 73 73 56.6584 73 36.5C73 16.3416 56.6584 0 36.5 0C16.3416 0 0 16.3416 0 36.5C0 56.6584 16.3416 73 36.5 73Z" fill="#4EBFFF"/>
<path d="M36.114 15.3375V34.3878C36.114 38.2914 34.992 41.3535 32.7247 43.5273C30.4807 45.7012 27.2784 46.7998 23.1411 46.7998C20.1024 46.7998 17.6714 46.2622 15.8248 45.1869C13.9782 44.1117 12.716 42.6157 12.0147 40.6756C11.3369 38.7589 11.1966 36.5617 11.594 34.084L19.4713 32.6815C19.0973 35.5332 19.2375 37.5434 19.8686 38.7121C20.4997 39.8809 21.6919 40.4652 23.4216 40.4652C25.1046 40.4652 26.2967 39.9042 26.9979 38.7823C27.6758 37.6603 28.0264 35.9072 28.0264 33.5697V15.3375H36.114Z" fill="black"/>
<path d="M62.0013 34.4346H45.9897V41.0029H58.7523V47.2439H45.9897V59.165H37.9254V28.1935H62.0013V34.4346Z" fill="black"/>
<path d="M33.7766 13V32.0504C33.7766 35.9539 32.6546 39.016 30.3872 41.1898C28.1433 43.3637 24.9409 44.4623 20.8036 44.4623C17.7649 44.4623 15.334 43.9247 13.4874 42.8494C11.6408 41.7742 10.3785 40.2782 9.67728 38.3381C8.99941 36.4214 8.85917 34.2242 9.25654 31.7465L17.1338 30.344C16.7598 33.1957 16.9001 35.2059 17.5312 36.3747C18.1623 37.5434 19.3544 38.1278 21.0841 38.1278C22.7671 38.1278 23.9592 37.5668 24.6604 36.4448C25.3383 35.3228 25.6889 33.5697 25.6889 31.2322V13H33.7766Z" fill="white"/>
<path d="M59.6639 32.0971H43.6522V38.6654H56.4148V44.9064H43.6522V56.8275H35.588V25.8561H59.6639V32.0971Z" fill="white"/>
</svg>
